<?xml version="1.0" encoding="utf-8"?>
<!-- Generator: Adobe Illustrator 27.3.1, SVG Export Plug-In . SVG Version: 6.00 Build 0)  -->
<svg version="1.1" id="Capa_1" xmlns="http://www.w3.org/2000/svg" xmlns:xlink="http://www.w3.org/1999/xlink" x="0px" y="0px"
	 viewBox="0 0 150 150" style="enable-background:new 0 0 150 150;" xml:space="preserve">
<style type="text/css">
	.st0{fill:#FFBB10;}
	.st1{fill-rule:evenodd;clip-rule:evenodd;fill:#FFFFFF;}
</style>
<g>
	<path class="st0" d="M149,75c0,40.9-33.1,74-74,74c-40.9,0-74-33.1-74-74C1,34.1,34.1,1,75,1C115.9,1,149,34.1,149,75"/>
	<path class="st1" d="M39.5,83.7c0.3-2.3,0.5-4.5,0.8-6.7c0.4-3.2,0.7-6.3,1.1-9.5c0.4-3.1,0.7-6.3,1.1-9.4
		c0.4-3.4,0.8-6.8,1.2-10.2c0.4-3.1,0.7-6.2,1.1-9.4c0.4-3.2,0.7-6.3,1.1-9.5c0-0.4,0.1-0.8,0.1-1.2c0.1-1.1,0.8-1.7,1.9-1.7
		c6.5,0,13,0,19.5,0c1,0,1.7,0.6,1.9,1.7c0.3,2.6,0.6,5.3,0.9,7.9c0.4,3.4,0.8,6.9,1.2,10.3c0.4,3.1,0.7,6.2,1.1,9.3
		c0.4,3.1,0.7,6.3,1.1,9.4c0.4,3.2,0.7,6.3,1.1,9.5c0.4,3.1,0.7,6.1,1.1,9.2c0,0.3,0.1,0.4,0.4,0.3c0.2,0,0.3,0,0.5,0
		c13.6,0,27.2,0,40.9,0c0.3,0,0.6,0,0.9,0c0.8,0.1,1.4,0.8,1.5,1.6c0,0.2,0,0.3,0,0.5c0,8.2,0,18.8,0,27c0,0.8-0.2,1.5-0.9,1.9
		c-0.3,0.1-0.6,0.2-0.9,0.2c-0.1,0-0.3,0-0.4,0c-27.7,0-55.4,0-83.1,0c-0.4,0-0.9-0.1-1.3-0.3c-0.6-0.3-0.8-0.8-0.9-1.4
		c0-0.1,0-0.2,0-0.3c0-8.3,0-19,0-27.4c0-0.6,0.2-1.2,0.7-1.6c0.4-0.2,0.9-0.4,1.4-0.4c1.5,0,2.9,0,4.4,0H39.5z M43.1,111.4v-0.6
		V96.2c0-1.5,0.7-2.2,2.2-2.2h13.3c1.5,0,2.2,0.7,2.2,2.2v14.6v0.6h6.6v-0.6V96.2c0-1.5,0.7-2.1,2.2-2.1c4.4,0,8.9,0,13.3,0
		c1.5,0,2.2,0.7,2.2,2.2v14.6v0.6h6.6v-0.6V96.2c0-1.5,0.7-2.2,2.2-2.2c4.4,0,8.9,0,13.3,0c1.5,0,2.2,0.7,2.2,2.2v14.6v0.5h6.9v-24
		H36.2v24H43.1z M72.2,83.7c-1.4-12.4-2.9-24.9-4.3-37.3H47.6c-1.4,12.4-2.9,24.8-4.3,37.3H72.2z M67.4,42.7
		c-0.5-4.3-1-8.6-1.5-12.9H49.5c-0.5,4.3-1,8.6-1.5,12.9H67.4z M57.1,97.7H46.8v13.7h10.3V97.7z M95.3,111.4h10.4V97.7H95.3V111.4z
		 M71,111.4h10.3V97.7H71V111.4z"/>
	<path class="st1" d="M84.1,64.8c0.2-0.5,0.3-0.9,0.6-1.3c0.7-1.1,1.5-2.1,2.2-3.2c0.2-0.3,0.2-0.5,0.1-0.8c-0.2-0.7-0.6-1-1.3-1.1
		c-1.1-0.1-2.1-0.3-3.2-0.5c-1.3-0.2-1.9-0.9-1.9-2.2c0-1.6,0-3.3,0-4.9c0-1.1,0.6-1.8,1.6-1.9c1.3-0.2,2.6-0.4,3.9-0.7
		c0.2,0,0.4-0.2,0.5-0.4c0.5-0.7,0.3-1.4-0.2-2c-0.7-0.8-1.2-1.7-1.8-2.6c-0.6-0.9-0.6-1.8,0.2-2.6c1.2-1.2,2.4-2.4,3.6-3.6
		c0.8-0.8,1.6-0.8,2.6-0.2c1.1,0.7,2.1,1.5,3.1,2.2c0.2,0.2,0.4,0.2,0.7,0.1c0.9-0.2,1.2-0.8,1.3-1.6c0.1-1,0.3-2,0.5-3
		c0.2-1.1,0.9-1.7,2-1.7c1.7,0,3.4,0,5,0c1.1,0,1.8,0.6,2,1.7c0.2,1.3,0.4,2.6,0.7,3.8c0,0.2,0.2,0.4,0.3,0.4
		c1.1,0.5,1.1,0.5,2.1-0.2c0.8-0.6,1.7-1.2,2.5-1.8c0.9-0.7,1.8-0.6,2.6,0.2c1.2,1.2,2.4,2.4,3.5,3.5c0.8,0.8,0.9,1.7,0.2,2.7
		c-0.7,1.1-1.5,2.1-2.2,3.1c-0.2,0.3-0.1,0.4-0.1,0.7c0.2,0.9,0.7,1.1,1.5,1.2c1.1,0.1,2.1,0.3,3.1,0.5c1.1,0.2,1.7,0.9,1.7,2
		c0,1.7,0,3.4,0,5.1c0,1-0.5,1.7-1.6,1.9c-1.4,0.3-2.7,0.5-4.1,0.7c-0.3,0-0.4,0.2-0.5,0.4c-0.4,0.7-0.3,1.2,0.2,1.9
		c0.7,0.8,1.3,1.8,1.9,2.7c0.7,1,0.6,1.8-0.2,2.6c-1.2,1.2-2.3,2.3-3.5,3.5c-0.8,0.8-1.7,0.9-2.6,0.2c-1.1-0.8-2.2-1.5-3.2-2.3
		c-0.3-0.2-0.5-0.2-0.8-0.1c-0.8,0.2-1,0.7-1,1.4c-0.1,1.1-0.4,2.3-0.6,3.4c-0.2,1-0.8,1.6-1.8,1.6c-1.8,0-3.6,0-5.4,0
		c-1,0-1.6-0.6-1.8-1.7c-0.2-1.3-0.5-2.6-0.7-3.9c0-0.3-0.2-0.4-0.5-0.6c-0.6-0.4-1.1-0.2-1.7,0.2c-0.9,0.7-1.9,1.3-2.8,2
		c-0.9,0.6-1.8,0.6-2.6-0.2c-1.2-1.2-2.5-2.4-3.7-3.7C84.5,65.7,84.3,65.2,84.1,64.8 M118.1,52.2c-1.3-0.2-2.5-0.5-3.8-0.7
		c-0.9-0.1-1.5-0.6-1.7-1.5c-0.3-0.8-0.6-1.6-0.9-2.3c-0.5-0.9-0.4-1.6,0.2-2.4c0.7-1,1.4-2,2.1-3c-0.6-0.6-1.1-1.1-1.6-1.6
		c-0.1,0.1-0.2,0.1-0.4,0.2c-0.9,0.7-1.8,1.3-2.8,2c-0.6,0.4-1.3,0.5-2,0.2c-1-0.4-1.9-0.8-2.9-1.2c-0.7-0.3-1.1-0.7-1.3-1.5
		c-0.2-1.3-0.5-2.6-0.7-3.9c-0.7,0-1.4,0-2.1,0c-0.1,0-0.2,0.2-0.2,0.3c-0.2,1.1-0.4,2.2-0.6,3.3c-0.1,0.9-0.6,1.5-1.6,1.8
		c-0.8,0.3-1.6,0.6-2.4,1c-0.8,0.4-1.5,0.4-2.2-0.1c-0.8-0.6-1.7-1.2-2.5-1.8c-0.2-0.2-0.4-0.3-0.6-0.4c-0.6,0.6-1.1,1.1-1.6,1.6
		c0.7,1,1.5,2.1,2.2,3.1c0.4,0.6,0.5,1.2,0.2,1.9c-0.4,1-0.8,1.9-1.2,2.9c-0.3,0.7-0.8,1.1-1.5,1.2c-0.4,0.1-0.8,0.1-1.3,0.2
		c-0.9,0.2-1.8,0.3-2.7,0.5v2.3c0.1,0,0.2,0.1,0.3,0.1c1.1,0.2,2.3,0.4,3.4,0.6c1,0.1,1.6,0.7,1.9,1.6c0.2,0.7,0.5,1.4,0.8,2.1
		c0.6,1,0.5,1.8-0.2,2.7c-0.7,1-1.4,2-2.1,3c0.6,0.6,1.1,1.1,1.6,1.6c0.1-0.1,0.2-0.2,0.4-0.2c1-0.7,2-1.4,3-2.1
		c0.6-0.4,1.2-0.5,1.9-0.2c0.9,0.4,1.8,0.8,2.7,1.1c0.7,0.3,1.2,0.7,1.3,1.5c0.2,1.2,0.4,2.4,0.7,3.7c0,0.1,0.2,0.3,0.3,0.4
		c0.7,0,1.4,0,2.1,0c0.2-1.3,0.5-2.6,0.7-3.9c0.1-0.9,0.6-1.4,1.5-1.7c0.7-0.2,1.4-0.5,2.1-0.8c1-0.6,1.9-0.5,2.8,0.2
		c1,0.7,2,1.4,2.9,2.1c0.6-0.6,1.1-1.1,1.6-1.6c-0.7-1-1.4-2.1-2.2-3.1c-0.6-0.8-0.6-1.5-0.2-2.4c0.4-0.7,0.7-1.5,1-2.3
		c0.3-0.9,0.9-1.4,1.8-1.5c1.1-0.2,2.3-0.4,3.4-0.6c0.3,0,0.4-0.1,0.4-0.4C118.1,53.5,118.1,52.9,118.1,52.2"/>
	<path class="st1" d="M101.2,59.8c3.5,0,6.5-2.9,6.5-6.4c0-3.6-2.9-6.5-6.5-6.5c-3.5,0-6.5,2.9-6.5,6.3
		C94.7,56.8,97.6,59.8,101.2,59.8"/>
</g>
</svg>
