<?xml version="1.0" encoding="utf-8"?>
<!-- Generator: Adobe Illustrator 27.3.1, SVG Export Plug-In . SVG Version: 6.00 Build 0)  -->
<svg version="1.1" id="Capa_1" xmlns="http://www.w3.org/2000/svg" xmlns:xlink="http://www.w3.org/1999/xlink" x="0px" y="0px"
	 viewBox="0 0 150 150" style="enable-background:new 0 0 150 150;" xml:space="preserve">
<style type="text/css">
	.st0{fill:#A09F9F;}
	.st1{fill-rule:evenodd;clip-rule:evenodd;fill:#FFFFFF;}
</style>
<g>
	<path class="st0" d="M149,75c0,40.9-33.1,74-74,74c-40.9,0-74-33.1-74-74C1,34.1,34.1,1,75,1C115.9,1,149,34.1,149,75"/>
	<path class="st1" d="M63.5,118.3c-7.2,0-14.4,0-21.6,0h-10c-1.1,0-1.6-0.5-1.6-1.6V113c0-5.7,0-11.6,0-17.3c0-0.3,0.1-0.7,0.4-1
		c5.1-6.2,10.3-12.6,15.7-19.1l0,0l-9.7,0l-4.8,0c-0.9,0-1.4-0.3-1.6-1c-0.1-0.2-0.1-0.4-0.1-0.5c0-5.5,0-11.1,0-16.7
		c0-0.4,0.2-0.8,0.4-1.1c5.6-6.9,11.4-13.9,16.9-20.7l3.2-3.9c0.3-0.4,0.7-0.8,1.3-0.8c0.1,0,0.2,0,0.3,0c0.6,0.1,0.9,0.5,1,1.1
		c0,0.1,0,0.2,0,0.3v0.1c0,5.5,0,11.1,0,16.6c0,0.2,0,0.3,0,0.5c4.5-5.6,9.1-11.1,13.6-16.7l0.9-1.1c0.3-0.4,0.7-0.8,1.3-0.8
		c0.1,0,0.2,0,0.3,0c0.6,0.1,0.9,0.5,1,1c0,0.2,0,0.4,0,0.6v14c0.3-0.3,0.5-0.7,0.8-1l4.1-5c2.7-3.2,5.3-6.5,8-9.7
		c0.3-0.4,0.7-0.6,1.2-0.6c1.5,0,2.9,0,4.4,0c0,0,2.8,0,3.9,0c0.5,0,1,0.2,1.3,0.5c0.2,0.3,0.3,0.6,0.2,1c-0.1,0.3-0.3,0.6-0.4,0.8
		c-2.5,3.1-5.1,6.2-7.6,9.3c-0.2,0.3-0.5,0.6-0.7,0.9c-0.5,0.6-0.9,1.1-1.4,1.7c-0.1,0.1-0.2,0.3-0.2,0.4c0,1.8,0,3.6,0,5.4l0,0.9
		c0,0,0,0,0,0.1h2.7c1.1,0,2.3,0,3.4,0c0.2,0,0.3-0.1,0.5-0.2c2.7-3.3,5.4-6.6,8.2-9.8c2.8-3.4,5.6-6.8,8.4-10.2
		c0.4-0.5,0.8-0.7,1.4-0.7c1.3,0,2.5,0,3.8,0l4.5,0c0.9,0,1.5,0.6,1.5,1.5v3.7c0,5.7,0,11.6,0,17.4c0,0.3-0.1,0.7-0.3,1
		c-6.7,8-13.4,16.1-20,24l-6.4,7.7c-8.3,10-16.6,19.9-24.9,29.9c-0.2,0.3-0.5,0.5-0.7,0.8c-0.4,0.5-0.9,1-1.3,1.6
		C64.5,118.1,64.1,118.3,63.5,118.3 M62.3,115.7v-9.5c-0.5,1-1.4,1.8-2.6,2.5c-1.4,0.8-3,1.1-4.6,1.1c-0.5,0-1.1,0-1.6-0.1
		c-1.7-0.2-3.1-0.9-4.3-1.8c-1.5-1.3-2-2.7-1.8-4.3c0.2-1.4,1-2.6,2.3-3.4c1.6-1,3.4-1.5,5.2-1.5c1.2,0,2.5,0.2,3.9,0.7
		c1.6,0.6,2.8,1.5,3.5,2.8V97c0,0-3.1,0-4.1,0c-1,0-2,0-2.9,0c-0.4,0-0.9-0.1-1.3-0.6c-0.4-0.5-0.3-1.1,0.3-1.8
		c1.2-1.4,2.3-2.8,3.5-4.2c1.8-2.2,3.6-4.4,5.4-6.5c8.3-10.1,16.7-20.1,25-30.2l-2.7,0c-0.9,0-1.7,0-2.6,0c-1.1,0-1.6-0.5-1.6-1.5
		c0-0.4,0-0.8,0-1.2v-3.3c0,0-0.1,0.1-0.1,0.1c-1.7,2-9.4,11.4-9.4,11.4c-4.6,5.6-9.2,11.2-13.8,16.7l-3.5,4.3l-4.1,5
		c-3.1,3.7-6.2,7.5-9.2,11.2c-0.4,0.5-0.8,0.7-1.4,0.7c-1,0-2.1,0-3.1,0l-3.7,0h-0.2v18.7H62.3z M95.2,59.9c-9.8,11.8-20,24-30,36
		C65.1,96,65,96.3,65,96.5c0,4.6,0,9.4,0,13.9l0,3c6.1-7.3,12.1-14.5,18.2-21.8l4.5-5.4c5.3-6.3,10.5-12.6,15.8-18.9
		c4.7-5.7,8.6-10.3,12.3-14.7c0.1-0.1,0.2-0.3,0.2-0.4c0-4.6,0-9.2,0-13.7v-3.4C115.9,35.1,95.2,59.9,95.2,59.9 M55.1,101.2
		c-1.6,0-2.9,0.4-4,1.2c-0.7,0.5-1.1,1.1-1.1,1.7c0,0.6,0.3,1.2,1,1.8c0.9,0.7,2,1.1,3.4,1.2c0.3,0,0.6,0,0.9,0
		c1.5,0,2.8-0.4,3.9-1.2c0.7-0.5,1.1-1.1,1.1-1.8c0-0.7-0.4-1.3-1-1.8l-0.1,0c0,0-0.1-0.1-0.1-0.1C57.9,101.6,56.6,101.2,55.1,101.2
		 M36.8,94.4c0.8,0,1.5,0,2.3,0h0c0.3,0,0.4-0.1,0.6-0.3c3.4-4.1,6.8-8.2,10.2-12.3c6.6-8,13.2-16,19.9-24.1l5.8-7.1
		c4.4-5.4,8.9-10.7,13.3-16.1c0.5-0.6,1-1.2,1.5-1.8h-2c-1,0-2,0-3,0c-0.1,0-0.2,0.1-0.3,0.2c-4.2,5.1-8.4,10.1-13,15.7L65.2,57
		c-3.3,4-6.7,8.1-10,12.1C49.9,75.6,44.6,82,39.3,88.4l-2.4,2.9c0,0-2,2.4-2.5,3.1L36.8,94.4z M60,94.4c1,0,1.9,0,2.9,0
		c0.1,0,0.2-0.1,0.3-0.2c0.8-0.9,1.6-1.9,2.4-2.9l0.7-0.8c7.7-9.3,15.5-18.5,23.2-27.8c7.8-9.3,15.5-18.6,23.3-27.9l0,0
		c0.4-0.5,0.9-1,1.3-1.6l0.4-0.5h-1.8c-1.2,0-2.3,0-3.5,0c0,0-0.1,0.1-0.2,0.2c-2,2.4-4.1,4.9-6.1,7.4l-1.8,2.1
		c0,0-16.2,19.6-21.1,25.4C73,76.2,66,84.6,59,93.1c-0.4,0.4-0.7,0.9-1.1,1.3L60,94.4z M47.3,72.9v-3.7c0-3.9,0-7.9,0-11.8
		c0-0.2,0-0.4,0.1-0.5c-2.9,3.6-5.8,7.1-8.7,10.7l-4.3,5.3H47.3z M64.4,40c-4.7,5.7-9.5,11.6-14.2,17.4c-0.1,0.1-0.1,0.3-0.1,0.4
		c0,4.2,0,8.5,0,12.7l2-2.5c5.2-6.4,10.4-12.8,15.6-19.2c0.1-0.1,0.2-0.4,0.2-0.6c0-3.6,0-7.3,0-10.8v-1.8L64.4,40z M47.9,39.1
		C43,45.2,38,51.3,33,57.4c-0.1,0.1-0.2,0.3-0.2,0.5c0,3.5,0,7,0,10.4v2.3L35,68c5.1-6.2,10.3-12.7,15.5-19c0.1-0.2,0.2-0.4,0.2-0.6
		c0-3.5,0-7,0-10.4v-2.1L47.9,39.1z"/>
	<path class="st1" d="M101.9,118.4c-2.6,0-5.2,0-7.8,0l-8.7,0c-1.2,0-1.6-0.4-1.6-1.6l0-4.4c0-4,0-8.1,0-12.1c0-0.5,0.2-1,0.5-1.4
		c2.8-3.4,5.6-6.8,8.5-10.2c2-2.5,4.1-4.9,6.1-7.4c0.1-0.2,0.3-0.3,0.5-0.5c0.2-0.1,0.4-0.2,0.7-0.2c0.6,0,1.1,0.4,1.2,1
		c0,0.2,0.1,0.4,0.1,0.6c0,5.1,0,10.1,0,15.2v0.3c0,0,0.1,0,0.1,0c0.1,0,0.2,0,0.3,0c0.2,0,0.3,0,0.4,0c0.1,0,0.2-0.1,0.3-0.2
		c1.6-1.9,3.2-3.9,4.8-5.8l3-3.6c1.9-2.3,3.8-4.5,5.7-6.8c0.2-0.3,0.6-0.5,0.9-0.6c0.1,0,0.2-0.1,0.4-0.1c0.7,0,1.3,0.6,1.3,1.3
		c0,1.3,0,2.5,0,3.8l0,1.6l0,2.8c0,2.8,0,5.7,0,8.6c0,0.4-0.2,0.9-0.4,1.2c-3.4,4.1-6.9,8.3-10.2,12.3c-1.5,1.8-3,3.6-4.5,5.5
		C103,118.2,102.5,118.4,101.9,118.4L101.9,118.4z M100.8,115.7v-15.4h-0.5c-1.1,0-1.6-0.5-1.6-1.6c0-2.6,0-5.2,0-7.8v-5.4
		c-1.5,1.8-3,3.6-4.5,5.4c-2.5,3.1-5.1,6.1-7.6,9.2c-0.2,0.2-0.3,0.4-0.3,0.8c0,4.2,0,8.5,0,12.7v2.1H100.8z M115.9,85.5
		c-3.9,4.7-8.1,9.8-12.2,14.7c-0.1,0.1-0.2,0.4-0.2,0.5c0,3.4,0,6.8,0,10.1l0,2.6l3.6-4.3c2.9-3.5,5.8-6.9,8.7-10.4
		c0.1-0.1,0.2-0.3,0.2-0.4c0-3.4,0-6.9,0-10.3V85.5z"/>
</g>
</svg>
