<?xml version="1.0" encoding="utf-8"?>
<!-- Generator: Adobe Illustrator 27.3.1, SVG Export Plug-In . SVG Version: 6.00 Build 0)  -->
<svg version="1.1" id="Capa_1" xmlns="http://www.w3.org/2000/svg" xmlns:xlink="http://www.w3.org/1999/xlink" x="0px" y="0px"
	 viewBox="0 0 150 150" style="enable-background:new 0 0 150 150;" xml:space="preserve">
<style type="text/css">
	.st0{fill:#FFBB10;}
	.st1{fill-rule:evenodd;clip-rule:evenodd;fill:#FFFFFF;}
	.st2{fill:#FFFFFF;}
</style>
<g>
	<path class="st0" d="M149,75c0,40.9-33.1,74-74,74c-40.9,0-74-33.1-74-74C1,34.1,34.1,1,75,1C115.9,1,149,34.1,149,75"/>
	<path class="st1" d="M81.5,18.4c5.7,3.3,8.7,8.1,9,14.6c0.2,0,0.5,0,0.7,0c1.3,0.1,2.3,1.1,2.3,2.4c0,1.3-0.9,2.3-2.2,2.4
		c-0.2,0-0.4,0-0.5,0H57.4c-1.3,0-2.2-0.6-2.6-1.6c-0.5-1.5,0.6-3.1,2.2-3.2c0.2,0,0.4,0,0.7,0c0.3-6.6,3.3-11.4,9-14.6
		c0.2,1.3,0.5,2.6,0.7,3.8c0.2,1.3,0.4,2.5,0.7,3.8c0.1,0.8,0.8,1.3,1.5,1.2c0.8-0.2,1.1-0.8,1-1.6c-0.5-2.7-1-5.5-1.4-8.2
		c0-0.2,0.1-0.6,0.2-0.7c0.6-0.8,1.5-1.2,2.5-1.2c1.6,0,3.1,0,4.7,0c0.5,0,1.1,0.2,1.6,0.4c1.1,0.5,1.2,1,1,2.1
		c-0.4,2.5-0.9,5-1.3,7.5c-0.2,0.9,0.2,1.6,1,1.7c0.7,0.1,1.3-0.4,1.4-1.3C80.6,23.4,81,20.9,81.5,18.4"/>
	<path class="st1" d="M45,128.9c-1.6,0-2.2-0.9-2.3-1.8c-0.1-1,0.6-1.8,1.6-2c0.2,0,0.3,0,0.5,0l58.3,0c0.5,0,1.5,0,2.1,1.1
		c0.3,0.5,0.3,1.1,0,1.7c-0.3,0.5-0.7,0.9-1.3,1c-0.2,0-0.4,0.1-0.6,0.1L45,128.9z"/>
	<path class="st1" d="M109.7,78.4c-0.9-0.6-2-0.8-3.1-0.9c-2-12.5-12.5-18.2-19.4-18.4c-0.1,1.7-1.1,2.9-2.4,3.9
		c-1.3,1-2.7,1.7-4.3,2.1c-2.9,0.9-5.8,1.1-8.8,0.8c-2.5-0.2-4.9-0.9-7.1-2.1c-1.4-0.8-2.5-1.7-3.2-3.2c-0.2-0.5-0.3-1.1-0.5-1.6
		c-8.7,0.6-17.8,7.6-19.3,18.4c-0.6,0.1-1.2,0.1-1.7,0.3c-0.6,0.2-1.1,0.4-1.6,0.7c-1.8,1.1-3.1,3.5-2.8,5.4
		c0.7,4.1,1.4,8.2,2.1,12.3c1,6.1,2.1,12.1,3.1,18.2c0.2,1.1,0.3,2.2,0.7,3.2c1.1,2.5,3.2,3.5,5.8,3.5c17.8,0,35.6,0,53.4,0
		c0.2,0,0.5,0,0.7,0c2.6-0.2,4.7-1.9,5.4-4.3c0.2-0.7,0.2-1.4,0.3-2c0.5-2.8,1-5.5,1.4-8.3c1.1-6.5,2.2-12.9,3.3-19.4
		c0.2-1.1,0.5-2.3,0.5-3.4C112.6,81.4,111.6,79.6,109.7,78.4 M109.1,83.8l-4.2,24.1c-0.4,2.2-0.8,4.5-1.2,6.8l0,0.1
		c-0.1,0.6-0.2,1.2-0.4,1.6c-0.4,0.8-1.1,1.2-2.1,1.2c-10.2,0-20.5,0-30.7,0H47c-1.3,0-2.3-1-2.4-2.3c-0.2-1.5-0.4-3-0.7-4.4
		c-0.1-0.6-0.2-1.1-0.3-1.6c-0.9-5-1.7-9.9-2.6-14.9l-0.8-4.9c-0.3-1.8-0.6-3.7-1-5.5c-0.2-0.9,0.2-1.9,1-2.4c0.5-0.3,1-0.4,1.8-0.4
		l64.3,0c1.3,0,2.1,0.4,2.6,1.5C109.1,83,109.1,83.4,109.1,83.8"/>
	<path class="st2" d="M78.1,99.6c0,2.2-1.8,4-4,4c-2.2,0-4-1.8-4-4s1.8-4,4-4C76.3,95.6,78.1,97.4,78.1,99.6"/>
	<path class="st1" d="M74,62.3c-2.4,0-4.7-0.7-7-2.2c-3.1-2-5.4-4.9-7.3-9.1c-1.3-2.9-2.1-6-2.5-9.5c0-0.1,0-0.2,0-0.3l0-0.6
		l0.6-0.1h2.4c0,0,0.2,1.2,0.2,1.5c0.1,0.7,0.2,1.4,0.4,2.1c0.8,4,2.3,7.3,4.5,9.9c1.9,2.4,4.1,3.8,6.6,4.3c0.7,0.2,1.5,0.3,2.2,0.3
		c2.1,0,4.1-0.7,6-2.1c2.4-1.8,4.3-4.3,5.7-7.7c1-2.4,1.6-4.9,1.9-7.7l0.1-0.5h3.3l-0.2,1.6c-0.1,0.7-0.2,1.4-0.3,2.1
		c-0.9,4.6-2.5,8.5-5,11.8c-2,2.6-4.2,4.4-6.8,5.4C77.1,62,75.5,62.3,74,62.3"/>
</g>
</svg>
