<?xml version="1.0" encoding="utf-8"?>
<!-- Generator: Adobe Illustrator 27.3.1, SVG Export Plug-In . SVG Version: 6.00 Build 0)  -->
<svg version="1.1" id="Capa_1" xmlns="http://www.w3.org/2000/svg" xmlns:xlink="http://www.w3.org/1999/xlink" x="0px" y="0px"
	 viewBox="0 0 150 150" style="enable-background:new 0 0 150 150;" xml:space="preserve">
<style type="text/css">
	.st0{fill:#FFBB10;}
	.st1{fill-rule:evenodd;clip-rule:evenodd;fill:#FFFFFF;}
</style>
<g>
	<path class="st0" d="M149,75c0,40.9-33.1,74-74,74c-40.9,0-74-33.1-74-74C1,34.1,34.1,1,75,1C115.9,1,149,34.1,149,75"/>
	<path class="st1" d="M96.6,112.6c-3.4,0-6.7-1.5-9.1-4.2c-2-2.2-3.1-5-3.1-8l0-0.5H53l0,0.5c-0.1,4-1.7,7.3-5,9.7
		c-2.1,1.6-4.5,2.4-7.1,2.4c-0.4,0-0.9,0-1.3-0.1c-3.2-0.3-6.1-1.9-8.1-4.3c-1.8-2.2-2.8-4.9-2.8-7.8l0-0.5h-3c-0.7,0-1.4,0-2.2,0
		c-1.6,0-2.4-0.8-2.4-2.4l0-6.8c0-5.5,0-11.1,0-16.6c0-0.7,0.2-1.4,0.7-1.9c8.6-9.6,15.1-16.9,21-23.6c0.6-0.7,1.3-1,2.3-1h0
		c1.5,0,3.2,0,5.7,0c0.8,0,5.8,0,5.8,0l0-1.2c0-0.6,0-1.2,0-1.8c0-1.3,0.9-2.1,2.2-2.1h60.3c1.9,0,2.6,0.7,2.6,2.6v12.6l2.3,0
		c0.7,0,7.3,0,8,0c1,0,1.8,0.6,2,1.5c0.2,0.9-0.1,1.9-0.9,2.3c-0.3,0.2-0.7,0.3-1.2,0.3c-0.7,0-7.4,0-8.2,0l-2,0v7.3l10.1,0
		c1.3,0,2.6,0,4,0c1,0,1.8,0.6,2,1.5c0.3,0.9-0.1,1.9-0.9,2.3c-0.5,0.3-1,0.3-1.3,0.3c-1.4,0-2.8,0-4.3,0h-9.6v7.3h1l9.2,0
		c1.2,0,2.1,0.8,2.1,2c0,0.6-0.2,1.1-0.5,1.5c-0.4,0.4-0.9,0.6-1.5,0.6c-0.6,0-7.3,0-7.9,0c0,0-2.4,0-2.4,0v12.7
		c0,1.8-0.8,2.5-2.5,2.5c-1,0-9.6,0-9.6,0h-0.5l0,0.5c0,3-1.1,5.8-3.1,8C103.4,111,100.1,112.6,96.6,112.6L96.6,112.6z M96.6,92.3
		c-4.3,0-8,3.5-8.1,7.7c-0.1,2.3,0.8,4.4,2.3,6c1.5,1.5,3.6,2.4,5.7,2.4h0c4.5,0,8.1-3.6,8.1-7.9C104.7,95.9,101.2,92.3,96.6,92.3
		L96.6,92.3z M40.8,92.3c-0.1,0-0.3,0-0.4,0c-4.5,0.2-7.8,3.9-7.6,8.5c0.2,4.3,3.7,7.6,8.1,7.6c0.1,0,0.3,0,0.4,0
		c4.3-0.2,7.7-3.7,7.7-8C48.8,95.7,45.3,92.3,40.8,92.3 M69.5,95.7c4.9,0,10.2,0,15.5,0h0.3l0.1-0.3c1.8-4.3,6.4-7.3,11.1-7.3
		c0.5,0,0.9,0,1.4,0.1c4.6,0.6,7.9,3,9.9,7.2l0.1,0.3l0.3,0c1.6,0,3.1,0,4.7,0l4.4,0V84.6h-7.1c-2.4,0-4.8,0-7.2,0
		c-0.7,0-1.3-0.2-1.7-0.7c-0.4-0.4-0.6-0.9-0.5-1.5c0-1.2,0.9-2,2.3-2c2.6,0,5.2,0,7.8,0h6.5v-7.3l-2.3,0c-1.9,0-3.8,0-5.7,0
		c-1.2,0-2.2-0.9-2.2-2.1c0-0.6,0.2-1.1,0.6-1.5c0.4-0.4,1-0.6,1.6-0.6l8.1,0v-7.3l-14.4,0c-0.6,0-1.2-0.2-1.6-0.7
		c-0.4-0.4-0.6-0.9-0.5-1.5c0.1-1.2,0.9-2,2.3-2l14.3,0v-11H60.7v49.1L69.5,95.7z M40.6,88.1c1.4,0,2.9,0.3,4.4,0.8
		c3.1,1.1,5.5,3.3,6.9,6.5l0.1,0.3l0.3,0c0.2,0,0.5,0,0.7,0h0c0.3,0,0.5,0,0.8,0l0.8,0h1.8V75.8H25.2v19.9h0.6c0.5,0,0.9,0,1.4,0
		c0.8,0,1.5,0,2.1,0l0.3,0l0.1-0.3c0.6-1.5,1.5-2.7,2.6-3.7C34.8,89.3,37.6,88.1,40.6,88.1 M45.4,51.8c-0.1,0.1-0.1,0.1-0.2,0.2
		c-4.1,4.6-8.4,9.4-12.1,13.6l-4,4.4l-1.4,1.6h28.8V51.6c0,0-4.7,0-5.2,0c-1.9,0-3.4,0-4.8,0l0-0.2l-1,0V51.8z"/>
</g>
</svg>
